<mxfile host="app.diagrams.net" modified="2024-07-03T21:23:20.667Z" agent="Mozilla/5.0 (X11; Linux x86_64) AppleWebKit/537.36 (KHTML, like Gecko) Chrome/126.0.0.0 Safari/537.36" etag="wIszFv3TAuZ_JoSuuvZH" version="24.6.4" type="device">
  <diagram name="Page-1" id="7ktDKFZDsprOe6lQADdl">
    <mxGraphModel dx="819" dy="418" grid="1" gridSize="10" guides="1" tooltips="1" connect="1" arrows="1" fold="1" page="1" pageScale="1" pageWidth="827" pageHeight="1169" math="0" shadow="0">
      <root>
        <mxCell id="0" />
        <mxCell id="1" parent="0" />
        <mxCell id="di3vYRzS2VIsjcXiFLub-6" style="edgeStyle=orthogonalEdgeStyle;rounded=0;orthogonalLoop=1;jettySize=auto;html=1;entryX=0.5;entryY=0;entryDx=0;entryDy=0;" edge="1" parent="1" source="di3vYRzS2VIsjcXiFLub-1" target="di3vYRzS2VIsjcXiFLub-2">
          <mxGeometry relative="1" as="geometry">
            <Array as="points">
              <mxPoint x="380" y="150" />
              <mxPoint x="140" y="150" />
            </Array>
          </mxGeometry>
        </mxCell>
        <mxCell id="di3vYRzS2VIsjcXiFLub-1" value="Vertex(x,y,z)" style="rounded=1;whiteSpace=wrap;html=1;" vertex="1" parent="1">
          <mxGeometry x="320" y="50" width="120" height="60" as="geometry" />
        </mxCell>
        <mxCell id="di3vYRzS2VIsjcXiFLub-7" style="edgeStyle=orthogonalEdgeStyle;rounded=0;orthogonalLoop=1;jettySize=auto;html=1;" edge="1" parent="1" source="di3vYRzS2VIsjcXiFLub-2" target="di3vYRzS2VIsjcXiFLub-3">
          <mxGeometry relative="1" as="geometry" />
        </mxCell>
        <mxCell id="di3vYRzS2VIsjcXiFLub-2" value="Translation" style="rounded=1;whiteSpace=wrap;html=1;" vertex="1" parent="1">
          <mxGeometry x="80" y="190" width="120" height="60" as="geometry" />
        </mxCell>
        <mxCell id="di3vYRzS2VIsjcXiFLub-8" style="edgeStyle=orthogonalEdgeStyle;rounded=0;orthogonalLoop=1;jettySize=auto;html=1;entryX=0;entryY=0.5;entryDx=0;entryDy=0;" edge="1" parent="1" source="di3vYRzS2VIsjcXiFLub-3" target="di3vYRzS2VIsjcXiFLub-4">
          <mxGeometry relative="1" as="geometry" />
        </mxCell>
        <mxCell id="di3vYRzS2VIsjcXiFLub-3" value="Rotation" style="rounded=1;whiteSpace=wrap;html=1;" vertex="1" parent="1">
          <mxGeometry x="240" y="190" width="120" height="60" as="geometry" />
        </mxCell>
        <mxCell id="di3vYRzS2VIsjcXiFLub-9" style="edgeStyle=orthogonalEdgeStyle;rounded=0;orthogonalLoop=1;jettySize=auto;html=1;" edge="1" parent="1" source="di3vYRzS2VIsjcXiFLub-4" target="di3vYRzS2VIsjcXiFLub-5">
          <mxGeometry relative="1" as="geometry" />
        </mxCell>
        <mxCell id="di3vYRzS2VIsjcXiFLub-4" value="Scaling" style="rounded=1;whiteSpace=wrap;html=1;" vertex="1" parent="1">
          <mxGeometry x="400" y="190" width="120" height="60" as="geometry" />
        </mxCell>
        <mxCell id="di3vYRzS2VIsjcXiFLub-5" value="Projection" style="rounded=1;whiteSpace=wrap;html=1;" vertex="1" parent="1">
          <mxGeometry x="560" y="190" width="120" height="60" as="geometry" />
        </mxCell>
        <mxCell id="di3vYRzS2VIsjcXiFLub-11" value="Viewport transformation" style="rounded=1;whiteSpace=wrap;html=1;" vertex="1" parent="1">
          <mxGeometry x="320" y="330" width="120" height="60" as="geometry" />
        </mxCell>
        <mxCell id="di3vYRzS2VIsjcXiFLub-12" style="edgeStyle=orthogonalEdgeStyle;rounded=0;orthogonalLoop=1;jettySize=auto;html=1;entryX=0.494;entryY=-0.057;entryDx=0;entryDy=0;entryPerimeter=0;" edge="1" parent="1" source="di3vYRzS2VIsjcXiFLub-5" target="di3vYRzS2VIsjcXiFLub-11">
          <mxGeometry relative="1" as="geometry">
            <Array as="points">
              <mxPoint x="620" y="290" />
              <mxPoint x="379" y="290" />
            </Array>
          </mxGeometry>
        </mxCell>
        <mxCell id="di3vYRzS2VIsjcXiFLub-14" value="Rasterization" style="rounded=1;whiteSpace=wrap;html=1;" vertex="1" parent="1">
          <mxGeometry x="320" y="430" width="120" height="60" as="geometry" />
        </mxCell>
        <mxCell id="di3vYRzS2VIsjcXiFLub-15" value="Depth buffering?" style="rounded=1;whiteSpace=wrap;html=1;" vertex="1" parent="1">
          <mxGeometry x="320" y="525" width="120" height="60" as="geometry" />
        </mxCell>
        <mxCell id="di3vYRzS2VIsjcXiFLub-20" value="" style="endArrow=classic;html=1;rounded=0;" edge="1" parent="1">
          <mxGeometry width="50" height="50" relative="1" as="geometry">
            <mxPoint x="530" y="590" as="sourcePoint" />
            <mxPoint x="450" y="570" as="targetPoint" />
            <Array as="points">
              <mxPoint x="490" y="580" />
            </Array>
          </mxGeometry>
        </mxCell>
        <mxCell id="di3vYRzS2VIsjcXiFLub-21" value="Questionable" style="text;html=1;align=center;verticalAlign=middle;whiteSpace=wrap;rounded=0;" vertex="1" parent="1">
          <mxGeometry x="540" y="580" width="60" height="30" as="geometry" />
        </mxCell>
      </root>
    </mxGraphModel>
  </diagram>
</mxfile>
